Title: Boys on the Run
Year: 2010
Country: Japan
Language: Japanese
Film Genre: Drama
Subtitles: English(idx,sub)
Director: Daisuke Miura
Cast: Kazunobu Mineta, Mei Kurokawa, Ryuhei Matsuda, You
IMDB Link: http://www.imdb.com/title/tt1590962


Plot or synopsis
"Itâ™s not often that a coming-of-age story revolves around a 29-year-old chronic masturbator who still lives with his mom, but thatâ™s just one example of the many ways Daisuke Miura's Boys on the Run is refreshingly atypical. The film is based on a manga by Kengo Hanazawa which was originally serialized in Shogakukanâ™s Big Comic Spirits from 2005-2008, and although the adaptation is fairly loyal visually, the overall tone has been changed both in how the characters behave and how the story arc is presented."



General
Complete name : Boys.on.the.Run.2010.DVDRip.XviD.AC3-BAUM.avi
Format : AVI
Format/Info : Audio Video Interleave
Format profile : OpenDML
File size : 1.40 GiB
Duration : 1h 54mn
Overall bit rate : 1 748 Kbps
Writing application : AVI-Mux GUI 1.17.8.3, Feb 16 201019:42:50


Video #0
ID : 0
Format : MPEG-4 Visual
Format profile : Advanced Simple@L5
Format settings, BVOP : Yes
Format settings, QPel : No
Format settings, GMC : No warppoints
Format settings, Matrix : Default (H.263)
Codec ID : XVID
Codec ID/Hint : XviD
Duration : 1h 54mn
Bit rate : 1 551 Kbps
Width : 720 pixels
Height : 384 pixels
Display aspect ratio : 1.875
Frame rate : 23.976 fps
Color space : YUV
Chroma subsampling : 4:2:0
Bit depth : 8 bits
Scan type : Progressive
Bits/(Pixel*Frame) : 0.234
Stream size : 1.24 GiB (89%)
Writing library : XviD 1.2.1 (UTC 2008-12-04)


Audio #1
ID : 1
Format : AC-3
Format/Info : Audio Coding 3
Mode extension : CM (complete main)
Codec ID : 2000
Duration : 1h 54mn
Bit rate mode : Constant
Bit rate : 192 Kbps
Channel(s) : 2 channels
Channel positions : Front: L R
Sampling rate : 48.0 KHz
Bit depth : 16 bits
Stream size : 157 MiB (11%)
Alignment : Aligned on interleaves
Interleave, duration : 64 ms (1.53 video frames)
Interleave, preload duration : 192 ms
Title : VTS_01_1 Ta0 48K 16bit 2ch
